<svg xmlns="http://www.w3.org/2000/svg" xmlns:xlink="http://www.w3.org/1999/xlink" width="46" height="46" viewBox="0 0 46 46">
  <defs>
    <clipPath id="clip-path">
      <rect id="Rectangle_976" data-name="Rectangle 976" width="46" height="46" transform="translate(92 961)" fill="#fff"/>
    </clipPath>
  </defs>
  <g id="ic_Menu_Configuration" data-name="ic_Menu Configuration" transform="translate(-92 -961)" clip-path="url(#clip-path)">
    <g id="ic_menu" transform="translate(11.027 972.822)">
      <g id="Group_352" data-name="Group 352" transform="translate(93.86 -0.001)">
        <g id="Group_351" data-name="Group 351" transform="translate(0 0)">
          <path id="Path_801" data-name="Path 801" d="M112.289,3.684V1.654a1.712,1.712,0,0,0-.629-1.343,1.418,1.418,0,0,0-1.216-.273L95.331,3.7A1.577,1.577,0,0,0,93.86,5.264V30.011a1.581,1.581,0,0,0,1.58,1.58h16.849a1.581,1.581,0,0,0,1.58-1.58V5.264A1.581,1.581,0,0,0,112.289,3.684Zm-1.6-2.622a.364.364,0,0,1,.317.076.653.653,0,0,1,.227.516v2.03H99.855Zm2.124,28.949a.527.527,0,0,1-.527.527H95.44a.527.527,0,0,1-.527-.527V5.264a.527.527,0,0,1,.527-.527h16.849a.527.527,0,0,1,.527.527Z" transform="translate(-93.86 0.001)" fill="#37373" stroke="#37373" stroke-linecap="round" stroke-linejoin="round" stroke-width="0.3"/>
          <path id="Path_802" data-name="Path 802" d="M274.639,116.15a1.581,1.581,0,0,0,1.58-1.58v-6.318a1.054,1.054,0,0,0,1.053-1.053v-3.159c0-2.3-1.184-3.9-3.091-4.17l-.521-.074a.527.527,0,0,0-.6.521V114.57A1.581,1.581,0,0,0,274.639,116.15Zm-.526-15.225c1.9.322,2.106,2.28,2.106,3.115V107.2h-.527a.527.527,0,0,0-.527.526v6.845a.526.526,0,1,1-1.053,0V100.924Z" transform="translate(-262.002 -93.633)" fill="#37373" stroke="#37373" stroke-linecap="round" stroke-linejoin="round" stroke-width="0.3"/>
          <path id="Path_803" data-name="Path 803" d="M171.717,106.953v8.182a1.58,1.58,0,1,0,3.159,0v-8.182a2.1,2.1,0,0,0,1.053-1.822v-4.212a.527.527,0,1,0-1.053,0v2.633a.527.527,0,0,1-1.053,0v-2.633a.527.527,0,0,0-1.053,0v2.633a.527.527,0,1,1-1.053,0v-2.633a.527.527,0,0,0-1.053,0v4.212A2.1,2.1,0,0,0,171.717,106.953Zm0-1.919a1.53,1.53,0,0,0,1.58-.314,1.53,1.53,0,0,0,1.58.314v.1a1.038,1.038,0,0,1-.7.987.526.526,0,0,0-.356.5v8.519a.527.527,0,0,1-1.053,0v-8.519a.526.526,0,0,0-.356-.5,1.038,1.038,0,0,1-.7-.987Z" transform="translate(-165.925 -94.198)" fill="#37373" stroke="#37373" stroke-linecap="round" stroke-linejoin="round" stroke-width="0.3"/>
          <path id="Path_804" data-name="Path 804" d="M162.654,417.178h7.371a.527.527,0,0,0,0-1.053h-7.371a.527.527,0,1,0,0,1.053Z" transform="translate(-157.915 -390.449)" fill="#37373" stroke="#37373" stroke-linecap="round" stroke-linejoin="round" stroke-width="0.3"/>
          <path id="Path_805" data-name="Path 805" d="M317.307,416.125h-1.053a.527.527,0,1,0,0,1.053h1.053a.527.527,0,0,0,0-1.053Z" transform="translate(-302.037 -390.449)" fill="#37373" stroke="#37373" stroke-linecap="round" stroke-linejoin="round" stroke-width="0.3"/>
          <path id="Path_806" data-name="Path 806" d="M269.266,450.258h-4.212a.526.526,0,1,0,0,1.053h4.212a.526.526,0,0,0,0-1.053Z" transform="translate(-253.996 -422.476)" fill="#37373" stroke="#37373" stroke-linecap="round" stroke-linejoin="round" stroke-width="0.3"/>
          <path id="Path_807" data-name="Path 807" d="M222.914,450.258h-.527a.526.526,0,1,0,0,1.053h.527a.526.526,0,1,0,0-1.053Z" transform="translate(-213.963 -422.476)" fill="#37373" stroke="#37373" stroke-linecap="round" stroke-linejoin="round" stroke-width="0.3"/>
          <path id="Path_808" data-name="Path 808" d="M164.233,450.258h-1.58a.526.526,0,1,0,0,1.053h1.58a.526.526,0,1,0,0-1.053Z" transform="translate(-157.915 -422.476)" fill="#37373" stroke="#37373" stroke-linecap="round" stroke-linejoin="round" stroke-width="0.3"/>
        </g>
      </g>
    </g>
    <g id="Group_353" data-name="Group 353" transform="translate(110.58 962)">
      <g id="Group_68" data-name="Group 68">
        <path id="Path_167" data-name="Path 167" d="M110.84,10.743h-1.609a.5.5,0,0,1-.477-.336,10.655,10.655,0,0,0-.574-1.387.5.5,0,0,1,.1-.578L109.419,7.3a1.535,1.535,0,0,0,0-2.17l-2.175-2.172a1.535,1.535,0,0,0-2.17,0l-1.14,1.14a.5.5,0,0,1-.577.1,10.628,10.628,0,0,0-1.387-.578.5.5,0,0,1-.338-.477V1.535A1.535,1.535,0,0,0,100.1,0H97.028a1.535,1.535,0,0,0-1.535,1.535V3.144a.5.5,0,0,1-.336.477,10.661,10.661,0,0,0-1.387.577.5.5,0,0,1-.578-.1L92.051,2.958a1.538,1.538,0,0,0-2.17,0L87.711,5.129a1.535,1.535,0,0,0,0,2.17l1.677,1.68a.512.512,0,0,0,.724-.722l-1.678-1.68a.512.512,0,0,1,0-.723l2.171-2.171a.512.512,0,0,1,.723,0l1.143,1.141a1.521,1.521,0,0,0,1.758.289,9.679,9.679,0,0,1,1.254-.521,1.522,1.522,0,0,0,1.034-1.448V1.535a.512.512,0,0,1,.512-.512H100.1a.512.512,0,0,1,.512.512V3.144a1.521,1.521,0,0,0,1.034,1.447,9.648,9.648,0,0,1,1.254.522,1.525,1.525,0,0,0,1.757-.289l1.143-1.14a.512.512,0,0,1,.723,0l2.171,2.172a.512.512,0,0,1,0,.723l-1.141,1.143a1.522,1.522,0,0,0-.289,1.758,9.679,9.679,0,0,1,.521,1.254,1.521,1.521,0,0,0,1.448,1.034h1.609a.512.512,0,0,1,.512.512v3.069a.512.512,0,0,1-.512.512h-1.609a1.521,1.521,0,0,0-1.447,1.034,9.64,9.64,0,0,1-.522,1.254,1.523,1.523,0,0,0,.289,1.757l1.141,1.143a.512.512,0,0,1,0,.723l-2.172,2.171a.512.512,0,0,1-.723,0l-1.681-1.677a.512.512,0,1,0-.735.712l.013.013,1.68,1.677a1.535,1.535,0,0,0,2.17,0l2.171-2.171a1.535,1.535,0,0,0,0-2.17l-1.139-1.141a.5.5,0,0,1-.1-.577,10.626,10.626,0,0,0,.578-1.387.5.5,0,0,1,.477-.338h1.609a1.535,1.535,0,0,0,1.535-1.535V12.278A1.535,1.535,0,0,0,110.84,10.743Z" transform="translate(-87.261)" fill="#37373" stroke="#37373" stroke-width="0.4"/>
      </g>
    </g>
    <g id="Group_354" data-name="Group 354" transform="translate(117.036 969.165)">
      <g id="Group_70" data-name="Group 70">
        <path id="Path_168" data-name="Path 168" d="M197.767,113.994a6.657,6.657,0,0,0-9.4,0,.512.512,0,0,0,.723.723,5.627,5.627,0,0,1,8.011,7.9l-.053.053a.512.512,0,1,0,.711.736l.013-.013A6.657,6.657,0,0,0,197.767,113.994Z" transform="translate(-188.219 -112.049)" fill="#37373" stroke="#37373" stroke-width="0.4"/>
      </g>
    </g>
  </g>
</svg>
