<svg xmlns="http://www.w3.org/2000/svg" xmlns:xlink="http://www.w3.org/1999/xlink" width="28" height="28" viewBox="0 0 28 28">
  <defs>
    <clipPath id="clip-path">
      <rect id="Rectangle_906" data-name="Rectangle 906" width="28" height="28" transform="translate(34 324)" fill="#fff"/>
    </clipPath>
  </defs>
  <g id="ic_reports" transform="translate(-34 -324)" clip-path="url(#clip-path)">
    <g id="ic_reports-2" data-name="ic_reports" transform="translate(35.556 325.556)">
      <path id="Path_587" data-name="Path 587" d="M33.187,11.667a2.179,2.179,0,0,0,1.517-.614l2.146,1.073a2.187,2.187,0,1,0,4.144-.673l2.917-2.917a2.187,2.187,0,0,0,3.03-2.628l2.534-1.9A2.185,2.185,0,1,0,48.6,2.842l-2.534,1.9A2.187,2.187,0,0,0,42.88,7.505l-2.917,2.917a2.183,2.183,0,0,0-2.46.4L35.358,9.749a2.187,2.187,0,1,0-2.17,1.918Zm17.5-10.208a.729.729,0,1,1-.729.729A.73.73,0,0,1,50.687,1.458ZM44.854,5.833a.729.729,0,1,1-.729.729A.73.73,0,0,1,44.854,5.833Zm-5.833,5.833a.729.729,0,1,1-.729.729A.73.73,0,0,1,39.021,11.667ZM33.187,8.75a.729.729,0,1,1-.729.729A.73.73,0,0,1,33.187,8.75Zm0,0" transform="translate(-29.493 0)" fill="#6e6e6e"/>
      <path id="Path_588" data-name="Path 588" d="M24.159,166.139h-.778V150.729a.729.729,0,0,0-.729-.729H19.736a.729.729,0,0,0-.729.729v15.409H17.548V155.1a.729.729,0,0,0-.729-.729H13.9a.729.729,0,0,0-.729.729v11.035H11.715v-5.2a.729.729,0,0,0-.729-.729H8.069a.729.729,0,0,0-.729.729v5.2H5.882v-8.118a.729.729,0,0,0-.729-.729H2.236a.729.729,0,0,0-.729.729v8.118H.729a.729.729,0,0,0,0,1.458h23.43a.729.729,0,1,0,0-1.458Zm-3.694-14.68h1.458v14.68H20.465Zm-5.833,4.375H16.09v10.305H14.632ZM8.8,161.667h1.458v4.472H8.8ZM2.965,158.75H4.424v7.389H2.965Zm0,0" transform="translate(0 -142.708)" fill="#6e6e6e"/>
    </g>
  </g>
</svg>
