<?xml version="1.0" encoding="utf-8"?>
<!-- Generator: Adobe Illustrator 23.0.3, SVG Export Plug-In . SVG Version: 6.00 Build 0)  -->
<svg version="1.1" id="Layer_1" xmlns="http://www.w3.org/2000/svg" xmlns:xlink="http://www.w3.org/1999/xlink" x="0px" y="0px"
	 viewBox="0 0 180 42" style="enable-background:new 0 0 180 42;" xml:space="preserve">
<style type="text/css">
	.st0{fill:#346F36;}
</style>
<g>
	<g>
		<g>
			<path class="st0" d="M69.7,34.6v2.5h-1v-7.2H71c1.3,0,2.5,0.3,2.5,2.3c0,1.9-1.3,2.5-2.2,2.5H69.7z M69.7,30.8v3h1.4
				c1,0,1.4-0.6,1.4-1.5c0-1-0.4-1.4-1.7-1.4H69.7z"/>
			<path class="st0" d="M69.9,37.3h-1.4v-7.6H71c1.3,0,2.7,0.3,2.7,2.4c0,1.9-1.3,2.6-2.4,2.6h-1.4V37.3z M68.9,37h0.7v-2.5h1.8
				c0.3,0,2.1-0.1,2.1-2.3c0-1.7-0.9-2.1-2.3-2.1h-2.1V37z M71.1,33.9h-1.6v-3.3h1.3c1.3,0,1.9,0.4,1.9,1.6
				C72.7,33.3,72.2,33.9,71.1,33.9z M69.9,33.6h1.2c0.8,0,1.2-0.4,1.2-1.4c0-0.8-0.2-1.2-1.5-1.2h-0.9V33.6z"/>
		</g>
		<g>
			<path class="st0" d="M80.3,37.2v-7.2h1v7.2H80.3z"/>
			<path class="st0" d="M81.5,37.3h-1.3v-7.6h1.3V37.3z M80.5,37h0.6v-6.9h-0.6V37z"/>
		</g>
		<g>
			<path class="st0" d="M89.5,36.3H93v0.9h-5.1l3.9-6.4h-3.4v-0.9h5.1L89.5,36.3z"/>
			<path class="st0" d="M93.2,37.3h-5.6l3.9-6.4h-3.3v-1.2h5.6l-3.9,6.4h3.3V37.3z M88.3,37h4.6v-0.5h-3.6l3.9-6.4h-4.6v0.5h3.6
				L88.3,37z"/>
		</g>
		<g>
			<path class="st0" d="M100.9,36.3h3.4v0.9h-5.1l3.9-6.4h-3.4v-0.9h5.1L100.9,36.3z"/>
			<path class="st0" d="M104.5,37.3H99l3.9-6.4h-3.3v-1.2h5.6l-3.9,6.4h3.3V37.3z M99.6,37h4.6v-0.5h-3.6l3.9-6.4H100v0.5h3.6
				L99.6,37z"/>
		</g>
		<g>
			<path class="st0" d="M115.9,37.2l-0.7-2h-2.8l-0.7,2h-1l2.6-7.2h1l2.6,7.2H115.9z M113.8,31.3l-1.1,3h2.2L113.8,31.3z"/>
			<path class="st0" d="M117.2,37.3h-1.4l-0.7-2h-2.5l-0.7,2h-1.4l2.7-7.6h1.3L117.2,37.3z M116,37h0.7l-2.5-6.9h-0.8l-2.5,6.9h0.7
				l0.7-2h3L116,37z M115.1,34.5h-2.7l1.3-3.7L115.1,34.5z M113,34.1h1.6l-0.8-2.3L113,34.1z"/>
		</g>
	</g>
	<g>
		<rect x="122" y="33.4" class="st0" width="40.5" height="0.6"/>
	</g>
	<g>
		<rect x="18.2" y="33.4" class="st0" width="41.4" height="0.6"/>
	</g>
	<g>
		<path class="st0" d="M22.7,11.7l7.7-7.1h2.3v19h-5v-9.8l-5,4.5l-5-4.5v9.7h-5v-19h2.3L22.7,11.7z"/>
		<path class="st0" d="M35.3,23.7l8.9-19h2.3l9,19h-5l-1.2-2.5h-7.8l-1.1,2.5H35.3z M43.3,17h3.9l-1.9-4.2L43.3,17z"/>
		<path class="st0" d="M68.9,23.7l-2.9-5h-3.1v5h-5v-19h8c3.9,0,7,3.1,7,7c0,2-0.9,3.9-2.3,5.1l4,6.9H68.9z M62.9,14.4H66
			c1.5,0,2.7-1.2,2.7-2.7c0-1.5-1.2-2.7-2.7-2.7h-3.1V14.4z"/>
		<path class="st0" d="M76.7,4.7h15v5h-5v14.1h-5V9.6h-4.9V4.7z"/>
		<path class="st0" d="M95.2,4.7h5v19h-5V4.7z"/>
		<path class="st0" d="M118,23.7l-9-9v9h-5v-19h2l9,9v-9h5v19H118z"/>
		<path class="st0" d="M131.7,4.7c5.3,0,9.5,4.3,9.5,9.5c0,5.3-4.3,9.5-9.5,9.5c-5.3,0-9.5-4.2-9.5-9.5C122.2,9,126.4,4.7,131.7,4.7
			z M131.7,9.7c-2.5,0-4.5,2-4.5,4.5c0,2.5,2,4.5,4.5,4.5c2.5,0,4.5-2.1,4.5-4.5C136.2,11.7,134.2,9.7,131.7,9.7z"/>
		<path class="st0" d="M146.3,8.7c-1.1,0-2-0.9-2-2s0.9-2.1,2-2.1c1.1,0,2,1,2,2.1c0,0,0.1,2.2-2,4V8.7z"/>
		<path class="st0" d="M159.2,18.7h7.4v5h-16l8.1-14h-7.6v-5h16.3L159.2,18.7z"/>
	</g>
</g>
</svg>
